# xmcd CD database file
#
# Track frame offsets:
#	150
#	13372
#	29175
#	40630
#	58065
#	73182
#	87540
#	102405
#	115622
#	127842
#	140415
#	161170
#
# Disc length: 2335 seconds
#
# Revision: 5
# Processed by: cddbd v1.5.1PL0 Copyright (c) Steve Scherf et al.
# Submitted via: CDex 1.51
#
DISCID=ad091d0c
DTITLE=LeAnn Rimes - LeAnn Rimes
DYEAR=1999
DGENRE=Country
TTITLE0=Crazy
TTITLE1=Don't Worry
TTITLE2=Leavin' On Your Mind
TTITLE3=Faded Love
TTITLE4=Born To Lose
TTITLE5=Cryin' Time
TTITLE6=She's Got You
TTITLE7=I Fall To Pieces
TTITLE8=Your Cheatin' Heart
TTITLE9=Lovesick Blues
TTITLE10=Me and Bobby McGee
TTITLE11=Big Deal
EXTD=YEAR: 1999
EXTT0=
EXTT1=
EXTT2=
EXTT3=
EXTT4=
EXTT5=
EXTT6=
EXTT7=
EXTT8=
EXTT9=
EXTT10=
EXTT11=
PLAYORDER=
